# xmcd
#
# Track frame offsets:
#	187
#	10615
#	29212
#	43477
#	60165
#	74927
#	89335
#	100837
#	112100
#	121037
#
# Disc length: 1810 seconds
#
# Revision: 0
# Processed by: cddbd v1.4PL0 Copyright (c) Steve Scherf et al.
# Submitted via: EasyCDDAExtractor 4.6.0.1
#
DISCID=8b07100a
DTITLE=Boxcar Willie - King of The Freight Train
DYEAR=1900
DGENRE=Country
TTITLE0=Big Freight Train Carry Me Home
TTITLE1=Song of Songs (with Willie Nelson)
TTITLE2=Honey I Love You
TTITLE3=Boxcar's My Home
TTITLE4=My Heart's Deep In The Heart of Texas
TTITLE5=Ain't Gonna Be Your Day
TTITLE6=Hobo Heaven
TTITLE7=Cheating Wife
TTITLE8=Gypsy Lady and The Hobo
TTITLE9=Dreary Day
EXTD=
EXTT0=
EXTT1=
EXTT2=
EXTT3=
EXTT4=
EXTT5=
EXTT6=
EXTT7=
EXTT8=
EXTT9=
PLAYORDER=
